<svg width="28" height="29" viewBox="0 0 28 29" fill="none" xmlns="http://www.w3.org/2000/svg">
<g id="twitter-fill 1" clip-path="url(#clip0_1_1295)">
<path id="Vector" d="M25.8557 7.11685C24.965 7.51083 24.0205 7.76957 23.0533 7.88452C24.0727 7.27486 24.8357 6.31537 25.2 5.18485C24.2433 5.75419 23.1945 6.15319 22.1013 6.36902C21.3671 5.58336 20.3938 5.06231 19.3328 4.88687C18.2718 4.71143 17.1826 4.89143 16.2345 5.39888C15.2864 5.90634 14.5325 6.71282 14.09 7.69295C13.6475 8.67307 13.5412 9.77193 13.7877 10.8187C11.8476 10.7215 9.94974 10.2173 8.21718 9.33896C6.48463 8.46063 4.95616 7.22774 3.73102 5.72035C3.29735 6.46521 3.06946 7.31195 3.07068 8.17385C3.07068 9.86552 3.93168 11.36 5.24068 12.235C4.46603 12.2106 3.70842 12.0014 3.03102 11.6249V11.6855C3.03125 12.8122 3.42111 13.9041 4.1345 14.7761C4.8479 15.6481 5.84091 16.2466 6.94518 16.47C6.22607 16.6649 5.47204 16.6936 4.74018 16.554C5.05153 17.5238 5.65836 18.3719 6.47571 18.9796C7.29306 19.5874 8.28 19.9243 9.29835 19.9432C8.28624 20.7381 7.12739 21.3257 5.88804 21.6724C4.6487 22.0191 3.35316 22.1182 2.07552 21.9639C4.30583 23.3982 6.90213 24.1597 9.55385 24.1572C18.529 24.1572 23.4372 16.722 23.4372 10.2739C23.4372 10.0639 23.4313 9.85152 23.422 9.64385C24.3774 8.95338 25.2019 8.09804 25.8568 7.11802L25.8557 7.11685Z" fill="black"/>
</g>
<defs>
<clipPath id="clip0_1_1295">
<rect width="28" height="28" fill="white" transform="translate(0 0.518188)"/>
</clipPath>
</defs>
</svg>
